PathFileType	4	(X/Y/Z)	D:\Share\Shared_Data\Ergonomics\Sit To Stand Pertubation\S2\S2 Cal 01.trc
DataRate	CameraRate	NumFrames	NumMarkers	Units	OrigDataRate	OrigDataStartFrame	OrigNumFrames	
100	100	6	21	mm	100	155	206
Frame#	Time	R_ASIS			R_Pelvis			V_Sacral			L_Pelvis			L_ASIS			Clavical			R_Acromium			L_Acromium			Sternum			Torso			R_Thigh_Med			R_Thigh_Lat			R_Thigh			R_Shank_Med			R_Shank_Lat			R_Shank			R_Heel			R_Toe			RAJC			RHJC			RKJC			
		X1	Y1	Z1	X2	Y2	Z2	X3	Y3	Z3	X4	Y4	Z4	X5	Y5	Z5	X6	Y6	Z6	X7	Y7	Z7	X8	Y8	Z8	X9	Y9	Z9	X10	Y10	Z10	X11	Y11	Z11	X12	Y12	Z12	X13	Y13	Z13	X14	Y14	Z14	X15	Y15	Z15	X16	Y16	Z16	X17	Y17	Z17	X18	Y18	Z18	X19	Y19	Z19	X20	Y20	Z20	X21	Y21	Z21	

155	1.54	425.63712	1026.317	127.07193	351.53595	1029.5731	167.74339	217.83618	1040.2363	-3.1604376	331.77542	1041.2424	-174.39543	417.92862	1037.6813	-138.2709	408.87906	1449.9155	-9.9067612	305.70889	1475.5953	196.5822	300.76059	1483.4832	-198.11583	453.12805	1289.3699	-14.178107	418.745	1411.0509	-124.50623	340.5202	494.59702	62.748051	335.00348	516.60742	151.98798	430.00818	674.12811	127.49928	304.71683	106.35032	69.104088	283.38303	100.68907	160.40436	302.43646	372.04291	183.29999	204.5553	60.482758	111.49392	441.85638	64.581169	108.81432	294.04993	103.519695	114.754224	362.0233145	939.810741	87.29570239	337.76184	505.60222	107.3680155
156	1.55	425.69492	1026.3167	127.04894	351.60559	1029.5658	167.73259	217.85135	1040.1864	-3.2142527	331.82825	1041.2568	-174.39999	417.9827	1037.6873	-138.2791	408.96298	1449.9182	-9.8191242	305.76028	1475.5322	196.70723	300.8721	1483.5546	-198.07137	453.2063	1289.381	-14.153158	418.87097	1411.1207	-124.4112	340.52423	494.58615	62.750904	335.02817	516.5968	151.98438	430.05597	674.10815	127.48698	304.72977	106.34644	69.100266	283.39062	100.67585	160.40987	302.47034	372.04117	183.2908	204.55466	60.482014	111.45126	441.86356	64.5756	108.80399	294.060195	103.511145	114.755068	362.0957598	939.7989369	87.27291857	337.7762	505.591475	107.367642
157	1.56	425.78845	1026.3053	127.04472	351.64893	1029.5674	167.73392	217.88072	1040.1989	-3.1959746	331.84921	1041.255	-174.39781	418.01859	1037.6876	-138.28363	409.04633	1449.9165	-9.734683	305.815	1475.443	196.79498	301.04797	1483.728	-197.9099	453.29474	1289.3794	-14.119052	418.99887	1411.1852	-124.33011	340.54492	494.59024	62.749645	335.04059	516.5954	151.97632	430.0874	674.0921	127.47419	304.7327	106.36177	69.109497	283.396	100.68835	160.40642	302.46259	372.01993	183.26657	204.54768	60.489178	111.4978	441.87183	64.596458	108.81702	294.06435	103.52506	114.7579585	362.1651177	939.7937028	87.27893936	337.792755	505.59282	107.3629825
158	1.57	425.80783	1026.3087	127.02301	351.69736	1029.5447	167.71394	217.92389	1040.2057	-3.1817424	331.91226	1041.274	-174.3837	418.05875	1037.674	-138.30544	409.13354	1449.9125	-9.6271429	305.88962	1475.3885	196.88499	301.20996	1483.8116	-197.84979	453.41068	1289.3855	-14.074872	419.12479	1411.2334	-124.26114	340.58276	494.58228	62.748024	335.06271	516.59814	151.9761	430.12405	674.08191	127.45829	304.7287	106.35196	69.101654	283.37988	100.67752	160.39313	302.48975	372.03226	183.29051	204.55301	60.485374	111.49755	441.86694	64.600594	108.80676	294.05429	103.51474	114.747392	362.1843796	939.7992236	87.25828514	337.822735	505.59021	107.362062
159	1.58	425.88373	1026.2885	127.00847	351.74738	1029.5394	167.71524	217.97481	1040.1896	-3.1922286	331.94238	1041.2891	-174.37456	418.11557	1037.6746	-138.30566	409.25378	1449.9039	-9.5595379	305.97375	1475.3494	196.96927	301.35153	1483.9094	-197.73199	453.51193	1289.3838	-14.02993	419.27274	1411.2939	-124.17099	340.60956	494.59311	62.745319	335.07657	516.58923	151.96773	430.15295	674.06671	127.43734	304.73495	106.34977	69.090065	283.38229	100.68141	160.41087	302.49359	372.03162	183.28773	204.55154	60.476158	111.4708	441.86008	64.57312	108.80052	294.05862	103.51559	114.7504675	362.2571954	939.7838289	87.2437111	337.843065	505.59117	107.3565245
160	1.59	425.91977	1026.2794	127.00781	351.82489	1029.54	167.72006	218.01176	1040.1984	-3.1837776	331.96588	1041.3015	-174.37985	418.13928	1037.6683	-138.30338	409.37531	1449.9204	-9.4587107	306.0661	1475.2974	197.05913	301.47235	1484.0125	-197.61702	453.62918	1289.3794	-13.970653	419.41403	1411.3534	-124.0889	340.58423	494.58698	62.755913	335.09616	516.58972	151.97531	430.18756	674.0647	127.4198	304.73309	106.33936	69.092697	283.3941	100.68456	160.408	302.49033	372.02008	183.27766	204.55966	60.48016	111.48649	441.85706	64.579391	108.80937	294.063595	103.51196	114.7503485	362.2857269	939.7809244	87.24590897	337.840195	505.58835	107.3656115
